<svg xmlns="http://www.w3.org/2000/svg" viewBox="0 0 1200 300" width="1200" height="300" role="img" aria-labelledby="title desc">
  <title id="title">bibliotec — the fleet source-of-truth catalog</title>
  <desc id="desc">A library shaped boot disk sends one trusted catalog to a fleet of machines and agents.</desc>
  <defs>
    <linearGradient id="bg" x1="0" y1="0" x2="1" y2="1">
      <stop offset="0" stop-color="#08111f"/>
      <stop offset="1" stop-color="#111a2c"/>
    </linearGradient>
    <linearGradient id="disk" x1="0" y1="0" x2="1" y2="1">
      <stop offset="0" stop-color="#17243a"/>
      <stop offset="1" stop-color="#0d1728"/>
    </linearGradient>
    <linearGradient id="signal" x1="0" y1="0" x2="1" y2="0">
      <stop offset="0" stop-color="#57d3c5"/>
      <stop offset="1" stop-color="#80a7ff"/>
    </linearGradient>
    <filter id="softGlow" x="-40%" y="-40%" width="180%" height="180%">
      <feGaussianBlur stdDeviation="5" result="blur"/>
      <feFlood flood-color="#57d3c5" flood-opacity="0.18" result="color"/>
      <feComposite in="color" in2="blur" operator="in" result="halo"/>
      <feMerge><feMergeNode in="halo"/><feMergeNode in="SourceGraphic"/></feMerge>
    </filter>
    <marker id="arrow" viewBox="0 0 10 10" refX="8" refY="5" markerWidth="6" markerHeight="6" orient="auto-start-reverse">
      <path d="M1 1l8 4-8 4z" fill="#80a7ff"/>
    </marker>
  </defs>

  <rect width="1200" height="300" rx="24" fill="url(#bg)"/>
  <path d="M30 62H1170M30 238H1170" stroke="#26334a" stroke-width="1" opacity="0.55"/>
  <circle cx="1140" cy="48" r="3" fill="#57d3c5"/>
  <circle cx="1154" cy="48" r="3" fill="#80a7ff"/>
  <circle cx="1168" cy="48" r="3" fill="#394964"/>

  <!-- Original library / boot-disk mark -->
  <g transform="translate(66 46)" filter="url(#softGlow)">
    <path d="M18 0h156l34 34v168a12 12 0 0 1-12 12H18A18 18 0 0 1 0 196V18A18 18 0 0 1 18 0z" fill="url(#disk)" stroke="#57d3c5" stroke-width="2"/>
    <path d="M42 0v58h116V0M65 0v38h70V0" fill="#0a1424" stroke="#33445f" stroke-width="2"/>
    <rect x="29" y="78" width="150" height="96" rx="8" fill="#0a1322" stroke="#33445f"/>
    <path d="M48 91v68M73 99v60M98 87v72M123 102v57M148 94v65" stroke-width="15" stroke-linecap="round"/>
    <path d="M48 91v68" stroke="#57d3c5" stroke-width="15" stroke-linecap="round"/>
    <path d="M73 99v60" stroke="#f2b764" stroke-width="15" stroke-linecap="round"/>
    <path d="M98 87v72" stroke="#80a7ff" stroke-width="15" stroke-linecap="round"/>
    <path d="M123 102v57" stroke="#bd8cff" stroke-width="15" stroke-linecap="round"/>
    <path d="M148 94v65" stroke="#f0748d" stroke-width="15" stroke-linecap="round"/>
    <path d="M36 174h136l-10 23H46z" fill="#111e31" stroke="#33445f"/>
    <path d="M92 180h24l-4 8h-16z" fill="#57d3c5"/>
    <path d="M188 28v28h-28" fill="none" stroke="#80a7ff" stroke-width="2"/>
  </g>

  <!-- Name and purpose -->
  <g font-family="sans-serif">
    <text x="318" y="124" fill="#eef5ff" font-size="58" font-weight="700" letter-spacing="1">bibliotec</text>
    <text x="321" y="158" fill="#91a3bd" font-size="17" letter-spacing="1.6">THE FLEET'S SOURCE-OF-TRUTH CATALOG</text>
    <rect x="321" y="181" width="318" height="31" rx="15.5" fill="#14263a" stroke="#28465b"/>
    <circle cx="341" cy="196.5" r="5" fill="#57d3c5"/>
    <text x="356" y="202" fill="#bad0e3" font-size="14">one catalog · many trusted boots</text>
  </g>

  <!-- Catalog distribution bus -->
  <g fill="none" stroke-linecap="round" stroke-linejoin="round">
    <path d="M640 196H735V105H808" stroke="#57d3c5" stroke-width="2"/>
    <path d="M735 196H808" stroke="url(#signal)" stroke-width="2"/>
    <path d="M735 196v80H808" stroke="#80a7ff" stroke-width="2"/>
    <circle cx="735" cy="196" r="7" fill="#08111f" stroke="#57d3c5" stroke-width="2"/>
    <path d="M794 105h14M794 196h14M794 276h14" stroke="#80a7ff" stroke-width="2" marker-end="url(#arrow)"/>
  </g>
  <g fill="#57d3c5">
    <circle cx="680" cy="196" r="3"/><circle cx="735" cy="147" r="3"/><circle cx="770" cy="105" r="3"/>
  </g>

  <!-- Fleet endpoints: machine, agent, terminal -->
  <g font-family="sans-serif">
    <g transform="translate(820 76)">
      <rect width="138" height="58" rx="10" fill="#111f33" stroke="#386675"/>
      <rect x="13" y="13" width="50" height="31" rx="4" fill="#08111f" stroke="#57d3c5"/>
      <path d="M21 23l7 6-7 6M33 35h18" fill="none" stroke="#57d3c5" stroke-width="2"/>
      <text x="76" y="27" fill="#eef5ff" font-size="13" font-weight="700">machine</text>
      <text x="76" y="43" fill="#8296b2" font-size="11">booted</text>
    </g>
    <g transform="translate(820 167)">
      <rect width="160" height="58" rx="10" fill="#111f33" stroke="#596fa0"/>
      <circle cx="38" cy="29" r="18" fill="#101a2b" stroke="#80a7ff"/>
      <circle cx="32" cy="27" r="2.5" fill="#80a7ff"/><circle cx="44" cy="27" r="2.5" fill="#80a7ff"/>
      <path d="M31 35q7 5 14 0M38 11V6" fill="none" stroke="#80a7ff" stroke-width="2"/>
      <text x="70" y="27" fill="#eef5ff" font-size="13" font-weight="700">agent</text>
      <text x="70" y="43" fill="#8296b2" font-size="11">provisioned</text>
    </g>
    <g transform="translate(820 247)">
      <rect width="184" height="42" rx="10" fill="#111f33" stroke="#596fa0"/>
      <circle cx="20" cy="21" r="5" fill="#57d3c5"/>
      <text x="35" y="26" fill="#eef5ff" font-size="13" font-weight="700">fleet node · synced</text>
    </g>
    <g transform="translate(1018 82)" opacity="0.8">
      <rect width="118" height="138" rx="14" fill="#0d1829" stroke="#33445f"/>
      <text x="59" y="25" text-anchor="middle" fill="#91a3bd" font-size="11" letter-spacing="1.2">MORE NODES</text>
      <g fill="#15253a" stroke="#4a607d">
        <rect x="18" y="40" width="82" height="20" rx="5"/><rect x="18" y="69" width="82" height="20" rx="5"/><rect x="18" y="98" width="82" height="20" rx="5"/>
      </g>
      <g fill="#57d3c5"><circle cx="30" cy="50" r="3"/><circle cx="30" cy="79" r="3"/><circle cx="30" cy="108" r="3"/></g>
    </g>
  </g>
</svg>
